<svg 
 xmlns="http://www.w3.org/2000/svg"
 xmlns:xlink="http://www.w3.org/1999/xlink"
 width="66px" height="60px">
<path fill-rule="evenodd"  fill="rgb(239, 137, 3)"
 d="M54.743,11.204 C59.744,16.181 62.838,22.718 63.559,29.683 L65.074,29.683 C65.585,29.683 65.999,30.096 65.999,30.604 L65.999,35.084 C65.999,35.592 65.585,36.004 65.074,36.004 L60.573,36.004 C60.062,36.004 59.649,35.592 59.649,35.084 L59.649,30.604 C59.649,30.096 60.062,29.683 60.573,29.683 L61.698,29.683 C60.228,16.412 49.510,5.745 36.175,4.282 L36.175,5.400 C36.175,5.909 35.761,6.321 35.250,6.321 L30.749,6.321 C30.238,6.321 29.824,5.909 29.824,5.400 L29.824,4.282 C16.489,5.745 5.771,16.412 4.302,29.683 L5.426,29.683 C5.937,29.683 6.350,30.096 6.350,30.604 L6.350,35.084 C6.350,35.592 5.937,36.004 5.426,36.004 L0.925,36.004 C0.414,36.004 -0.000,35.592 -0.000,35.084 L-0.000,30.604 C-0.000,30.096 0.414,29.683 0.925,29.683 L2.440,29.683 C3.161,22.718 6.255,16.181 11.257,11.204 C14.464,8.012 18.316,5.597 22.510,4.081 L6.350,4.081 L6.350,5.400 C6.350,5.909 5.937,6.321 5.426,6.321 L0.925,6.321 C0.414,6.321 -0.000,5.909 -0.000,5.400 L-0.000,0.920 C-0.000,0.412 0.414,-0.000 0.925,-0.000 L5.426,-0.000 C5.937,-0.000 6.350,0.412 6.350,0.920 L6.350,2.240 L29.824,2.240 L29.824,0.920 C29.824,0.412 30.238,-0.000 30.749,-0.000 L35.250,-0.000 C35.761,-0.000 36.175,0.412 36.175,0.920 L36.175,2.240 L59.649,2.240 L59.649,0.920 C59.649,0.412 60.062,-0.000 60.573,-0.000 L65.074,-0.000 C65.585,-0.000 65.999,0.412 65.999,0.920 L65.999,5.400 C65.999,5.909 65.585,6.321 65.074,6.321 L60.573,6.321 C60.062,6.321 59.649,5.909 59.649,5.400 L59.649,4.081 L43.489,4.081 C47.683,5.597 51.535,8.012 54.743,11.204 ZM61.498,31.524 L61.498,34.163 L64.150,34.163 L64.150,31.524 L62.747,31.524 C62.744,31.524 62.741,31.525 62.739,31.525 C62.738,31.525 62.737,31.524 62.737,31.524 L61.498,31.524 ZM3.260,31.525 C3.257,31.525 3.255,31.524 3.252,31.524 L1.849,31.524 L1.849,34.163 L4.501,34.163 L4.501,31.524 L3.262,31.524 C3.262,31.524 3.261,31.525 3.260,31.525 ZM4.501,3.162 C4.501,3.161 4.500,3.161 4.500,3.160 C4.500,3.159 4.501,3.159 4.501,3.158 L4.501,1.841 L1.849,1.841 L1.849,4.480 L4.501,4.480 L4.501,3.162 ZM34.325,3.162 C34.325,3.161 34.325,3.161 34.325,3.160 C34.325,3.159 34.325,3.159 34.325,3.158 L34.325,1.841 L31.674,1.841 L31.674,3.158 C31.674,3.159 31.674,3.159 31.674,3.160 C31.674,3.161 31.674,3.161 31.674,3.162 L31.674,4.480 L34.325,4.480 L34.325,3.162 ZM61.498,4.480 L64.150,4.480 L64.150,1.841 L61.498,1.841 L61.498,4.480 ZM28.881,12.347 C29.011,11.978 29.360,11.731 29.753,11.731 L36.246,11.731 C36.639,11.731 36.988,11.978 37.118,12.347 L45.757,36.875 C46.257,38.296 46.287,39.808 45.843,41.248 L42.634,51.651 L43.402,51.651 C43.912,51.651 44.327,52.063 44.327,52.572 L44.327,59.080 C44.327,59.588 43.912,60.000 43.402,60.000 L22.597,60.000 C22.087,60.000 21.673,59.588 21.673,59.080 L21.673,52.572 C21.673,52.063 22.087,51.651 22.597,51.651 L23.365,51.651 L20.156,41.248 C19.712,39.808 19.742,38.296 20.242,36.875 L28.881,12.347 ZM23.523,58.159 L42.477,58.159 L42.477,53.492 L23.523,53.492 L23.523,58.159 ZM21.925,40.707 L25.217,51.383 L40.782,51.383 L44.074,40.707 C44.402,39.646 44.380,38.532 44.011,37.484 L35.590,13.572 L33.925,13.572 L33.925,30.995 C35.805,31.417 37.217,33.086 37.217,35.084 C37.217,37.398 35.325,39.281 33.000,39.281 C30.674,39.281 28.782,37.398 28.782,35.084 C28.782,33.086 30.194,31.417 32.074,30.995 L32.074,13.572 L30.409,13.572 L21.988,37.484 C21.619,38.532 21.597,39.646 21.925,40.707 ZM33.000,32.728 C31.694,32.728 30.632,33.784 30.632,35.084 C30.632,36.383 31.694,37.440 33.000,37.440 C34.305,37.440 35.367,36.383 35.367,35.084 C35.367,33.784 34.305,32.728 33.000,32.728 Z"/>
</svg>