<svg 
 xmlns="http://www.w3.org/2000/svg"
 xmlns:xlink="http://www.w3.org/1999/xlink"
 width="69px" height="69px">
<path fill-rule="evenodd"  fill="rgb(239, 137, 3)"
 d="M60.535,18.749 L60.535,18.750 L34.121,45.160 L51.652,62.689 L49.918,64.422 L32.388,46.894 L19.047,60.232 L12.511,61.898 L11.906,59.523 L17.790,58.024 L57.068,18.750 L54.367,16.049 L18.145,52.267 L16.411,50.534 L52.634,14.316 L51.202,12.885 L52.936,11.152 L58.802,17.016 L59.747,16.070 C60.190,15.628 60.434,15.040 60.434,14.414 C60.434,13.788 60.190,13.200 59.747,12.757 L55.927,8.937 C55.014,8.024 53.526,8.024 52.613,8.937 L51.667,9.883 L51.667,9.883 L11.429,50.116 L16.576,55.263 L14.843,56.997 L10.265,52.419 L8.214,60.464 L9.732,60.078 L10.337,62.452 L4.818,63.859 L8.445,49.632 L8.683,49.395 L34.557,23.524 L30.542,19.508 L27.998,22.051 L26.265,20.317 L28.809,17.775 L25.373,14.338 L21.388,18.321 L19.655,16.588 L23.640,12.604 L20.203,9.167 L17.658,11.712 L15.924,9.979 L18.470,7.433 L14.500,3.462 L3.463,14.506 L21.080,32.121 L19.347,33.854 L-0.004,14.507 L14.500,-0.005 L36.290,21.791 L48.200,9.883 L48.200,9.883 L50.880,7.203 C52.749,5.335 55.790,5.335 57.660,7.203 L61.481,11.024 C62.387,11.929 62.885,13.133 62.885,14.414 C62.885,15.694 62.387,16.898 61.481,17.804 L60.535,18.749 ZM52.411,49.340 L50.677,47.607 L52.117,46.167 L52.117,46.166 L54.662,43.622 L51.226,40.185 L48.680,42.730 L46.947,40.997 L49.493,38.451 L47.039,35.996 L48.772,34.263 L68.999,54.495 L54.494,68.998 L52.761,67.264 L65.532,54.495 L61.564,50.527 L59.021,53.070 L57.287,51.337 L59.832,48.793 L56.396,45.356 L52.411,49.340 Z"/>
</svg>