<svg 
 xmlns="http://www.w3.org/2000/svg"
 xmlns:xlink="http://www.w3.org/1999/xlink"
 width="69px" height="57px">
<path fill-rule="evenodd"  fill="rgb(239, 137, 3)"
 d="M65.641,34.375 L63.919,33.000 L65.293,31.284 L52.057,31.284 L52.057,41.224 L34.821,41.273 L34.821,51.218 L17.584,51.218 L17.584,56.996 L15.378,56.996 L15.378,49.016 L32.615,49.016 L32.615,39.076 L49.851,39.027 L49.851,29.082 L65.293,29.082 L63.919,27.366 L65.641,25.990 L69.000,30.183 L65.641,34.375 ZM25.956,35.510 L17.274,30.515 L17.274,15.116 L11.275,13.259 L11.242,31.083 L11.600,31.247 L11.564,31.325 L23.012,37.756 L23.012,45.966 L20.806,45.966 L20.806,39.044 L10.641,33.334 L3.433,49.016 L6.751,49.016 L12.206,37.425 L14.202,38.362 L8.152,51.218 L-0.007,51.218 L9.034,31.548 L9.034,15.137 L5.473,18.068 L7.185,25.832 L5.030,26.305 L3.029,17.225 L9.761,11.685 C9.817,11.633 9.864,11.574 9.925,11.528 C10.489,11.097 11.208,10.958 11.893,11.146 L19.480,13.493 L19.480,20.286 L25.556,25.090 L24.187,26.817 L19.480,23.095 L19.480,29.242 L28.162,34.237 L28.162,45.966 L25.956,45.966 L25.956,35.510 ZM15.813,10.547 C15.608,10.547 15.402,10.531 15.194,10.497 C12.735,10.100 11.113,7.436 11.579,4.557 C11.797,3.204 12.442,1.992 13.394,1.146 C14.410,0.244 15.650,-0.142 16.883,0.055 C18.117,0.254 19.171,1.011 19.850,2.187 C20.487,3.289 20.717,4.641 20.498,5.995 C20.072,8.631 18.041,10.547 15.813,10.547 ZM17.939,3.287 C17.598,2.697 17.098,2.320 16.531,2.230 C16.441,2.215 16.351,2.208 16.260,2.208 C15.778,2.208 15.290,2.410 14.861,2.791 C14.287,3.301 13.894,4.053 13.756,4.908 C13.489,6.559 14.309,8.123 15.546,8.323 C16.784,8.524 18.054,7.295 18.321,5.644 C18.458,4.789 18.323,3.952 17.939,3.287 Z"/>
</svg>