<svg 
 xmlns="http://www.w3.org/2000/svg"
 xmlns:xlink="http://www.w3.org/1999/xlink"
 width="66px" height="55px">
<path fill-rule="evenodd"  fill="rgb(239, 137, 3)"
 d="M-0.003,54.991 L-0.003,0.002 L65.996,0.002 L65.996,53.817 L65.996,54.991 L-0.003,54.991 ZM63.646,2.350 L2.347,2.350 L2.347,8.713 L60.329,8.713 L60.329,11.062 L2.347,11.062 L2.347,52.642 L63.646,52.642 L63.646,2.350 ZM19.614,47.629 L19.614,48.803 L6.057,48.803 L6.057,14.902 L19.614,14.902 L19.614,47.629 ZM17.264,17.251 L8.408,17.251 L8.408,46.454 L17.264,46.454 L17.264,17.251 ZM14.914,22.509 L10.757,22.509 L10.757,20.160 L14.914,20.160 L14.914,22.509 ZM14.914,27.768 L10.757,27.768 L10.757,25.419 L14.914,25.419 L14.914,27.768 ZM14.914,33.027 L10.757,33.027 L10.757,30.678 L14.914,30.678 L14.914,33.027 ZM14.914,38.285 L10.757,38.285 L10.757,35.936 L14.914,35.936 L14.914,38.285 ZM14.914,43.545 L10.757,43.545 L10.757,41.196 L14.914,41.196 L14.914,43.545 ZM32.390,24.854 L34.183,26.370 L29.117,32.359 L34.184,38.348 L32.389,39.865 L26.040,32.359 L31.631,25.751 L32.390,24.854 ZM44.698,24.154 L38.718,41.337 L36.499,40.566 L42.478,23.382 L44.698,24.154 ZM48.807,24.854 L55.156,32.359 L49.565,38.968 L48.807,39.865 L47.012,38.348 L52.079,32.359 L47.012,26.370 L48.807,24.854 ZM14.344,4.397 L16.638,4.397 L16.638,6.745 L14.344,6.745 L14.344,4.397 ZM9.756,4.397 L12.050,4.397 L12.050,6.745 L9.756,6.745 L9.756,4.397 ZM5.167,4.397 L7.461,4.397 L7.461,6.745 L5.167,6.745 L5.167,4.397 Z"/>
</svg>