<svg 
 xmlns="http://www.w3.org/2000/svg"
 xmlns:xlink="http://www.w3.org/1999/xlink"
 width="75px" height="59px">
<path fill-rule="evenodd"  fill="rgb(239, 137, 3)"
 d="M74.824,53.832 C74.813,53.907 74.808,53.981 74.780,54.053 C74.751,54.126 74.704,54.186 74.659,54.250 C74.632,54.289 74.619,54.335 74.585,54.372 L70.797,58.462 C70.792,58.466 70.786,58.468 70.782,58.472 C70.725,58.532 70.653,58.571 70.584,58.615 C70.542,58.641 70.506,58.678 70.461,58.698 C70.415,58.718 70.361,58.720 70.312,58.733 C70.234,58.753 70.158,58.779 70.078,58.780 C70.071,58.781 70.066,58.784 70.059,58.784 L6.126,58.784 C6.078,58.784 6.037,58.763 5.992,58.757 C5.910,58.746 5.829,58.739 5.751,58.708 C5.673,58.677 5.609,58.625 5.542,58.576 C5.506,58.549 5.463,58.536 5.429,58.503 L1.175,54.413 C1.172,54.411 1.172,54.407 1.169,54.405 C1.098,54.335 1.048,54.249 1.001,54.162 C0.985,54.133 0.959,54.111 0.946,54.081 C0.935,54.054 0.937,54.022 0.928,53.994 C0.896,53.896 0.868,53.798 0.868,53.696 C0.868,53.693 0.866,53.690 0.866,53.686 C0.866,53.640 0.886,53.601 0.892,53.556 C0.903,53.473 0.910,53.391 0.941,53.312 C0.973,53.234 1.024,53.171 1.073,53.104 C1.100,53.067 1.113,53.023 1.146,52.989 C1.148,52.986 1.152,52.985 1.155,52.983 C1.223,52.912 1.310,52.862 1.397,52.814 C1.426,52.799 1.448,52.772 1.477,52.760 C1.506,52.748 1.539,52.750 1.568,52.740 C1.664,52.710 1.761,52.682 1.862,52.681 C1.865,52.681 1.868,52.679 1.872,52.679 L9.200,52.679 L9.200,16.221 C9.200,15.665 9.650,15.214 10.206,15.214 L22.227,15.214 L22.227,4.538 C22.232,2.476 23.900,0.803 25.961,0.799 L65.557,0.799 C67.618,0.803 69.286,2.476 69.290,4.538 L69.290,28.436 C69.287,30.132 68.152,31.547 66.606,32.005 L66.606,52.679 L73.848,52.679 C73.898,52.679 73.942,52.701 73.991,52.708 C74.066,52.719 74.141,52.725 74.213,52.753 C74.285,52.781 74.345,52.828 74.408,52.872 C74.448,52.900 74.494,52.914 74.532,52.948 C74.536,52.952 74.538,52.959 74.542,52.963 C74.601,53.020 74.640,53.091 74.684,53.160 C74.711,53.203 74.748,53.239 74.768,53.284 C74.788,53.330 74.790,53.384 74.803,53.434 C74.823,53.512 74.848,53.588 74.850,53.668 C74.850,53.674 74.854,53.680 74.854,53.686 C74.854,53.738 74.832,53.783 74.824,53.832 ZM22.227,28.436 L22.227,17.229 L11.212,17.229 L11.212,52.679 L64.594,52.679 L64.594,32.175 L62.674,32.175 L62.674,50.151 C62.674,50.707 62.223,51.158 61.668,51.158 C61.510,51.158 61.366,51.114 61.233,51.050 L14.227,51.050 C13.671,51.050 13.221,50.599 13.221,50.042 L13.221,19.488 C13.221,18.931 13.671,18.480 14.227,18.480 C14.782,18.480 15.233,18.931 15.233,19.488 L15.233,49.035 L60.662,49.035 L60.662,32.175 L45.290,32.175 L39.555,38.044 C39.364,38.239 39.106,38.347 38.834,38.347 C38.561,38.346 38.303,38.237 38.114,38.041 L32.431,32.175 L25.961,32.175 C23.901,32.171 22.232,30.499 22.227,28.436 ZM66.772,29.653 C67.087,29.336 67.278,28.910 67.278,28.436 L67.278,4.538 C67.278,4.065 67.087,3.638 66.772,3.322 C66.455,3.006 66.030,2.814 65.557,2.814 L25.961,2.814 C25.488,2.814 25.063,3.006 24.746,3.322 C24.431,3.638 24.240,4.065 24.239,4.538 L24.239,16.221 C24.239,16.221 24.240,16.221 24.240,16.221 C24.240,16.222 24.239,16.222 24.239,16.222 L24.239,28.436 C24.240,28.910 24.431,29.336 24.746,29.653 C25.063,29.969 25.488,30.159 25.961,30.160 L32.857,30.160 C33.129,30.160 33.389,30.270 33.579,30.466 L38.839,35.895 L44.148,30.463 C44.336,30.270 44.598,30.160 44.867,30.160 L65.557,30.160 C66.030,30.159 66.455,29.969 66.772,29.653 ZM4.372,54.694 L6.530,56.769 L69.620,56.769 L71.543,54.694 L4.372,54.694 ZM60.839,18.897 L40.064,18.897 C39.508,18.897 39.058,18.446 39.058,17.890 C39.058,17.334 39.508,16.882 40.064,16.882 L60.839,16.882 C61.395,16.882 61.845,17.334 61.845,17.890 C61.845,18.446 61.395,18.897 60.839,18.897 ZM60.839,9.741 L30.679,9.741 C30.123,9.741 29.673,9.289 29.673,8.733 C29.673,8.176 30.123,7.726 30.679,7.726 L60.839,7.726 C61.395,7.726 61.845,8.176 61.845,8.733 C61.845,9.289 61.395,9.741 60.839,9.741 ZM30.882,10.784 L41.866,10.784 C42.421,10.784 42.872,11.234 42.872,11.791 C42.872,12.347 42.421,12.798 41.866,12.798 L30.882,12.798 C30.326,12.798 29.876,12.347 29.876,11.791 C29.876,11.234 30.326,10.784 30.882,10.784 ZM43.591,11.791 C43.591,11.234 44.041,10.784 44.597,10.784 L52.704,10.784 C53.259,10.784 53.710,11.234 53.710,11.791 C53.710,12.347 53.259,12.798 52.704,12.798 L44.597,12.798 C44.041,12.798 43.591,12.347 43.591,11.791 ZM30.882,13.701 L51.163,13.701 C51.719,13.701 52.169,14.152 52.169,14.708 C52.169,15.264 51.719,15.715 51.163,15.715 L30.882,15.715 C30.326,15.715 29.876,15.264 29.876,14.708 C29.876,14.152 30.326,13.701 30.882,13.701 ZM30.882,16.882 L37.216,16.882 C37.771,16.882 38.222,17.334 38.222,17.890 C38.222,18.446 37.771,18.897 37.216,18.897 L30.882,18.897 C30.326,18.897 29.876,18.446 29.876,17.890 C29.876,17.334 30.326,16.882 30.882,16.882 ZM30.947,20.498 L41.930,20.498 C42.486,20.498 42.936,20.949 42.936,21.506 C42.936,22.062 42.486,22.513 41.930,22.513 L30.947,22.513 C30.391,22.513 29.941,22.062 29.941,21.506 C29.941,20.949 30.391,20.498 30.947,20.498 ZM44.661,20.498 L52.769,20.498 C53.324,20.498 53.775,20.949 53.775,21.506 C53.775,22.062 53.324,22.513 52.769,22.513 L44.661,22.513 C44.106,22.513 43.655,22.062 43.655,21.506 C43.655,20.949 44.106,20.498 44.661,20.498 Z"/>
</svg>