<svg 
 xmlns="http://www.w3.org/2000/svg"
 xmlns:xlink="http://www.w3.org/1999/xlink"
 width="69px" height="67px">
<path fill-rule="evenodd"  fill="rgb(239, 137, 3)"
 d="M67.278,48.427 L47.720,61.286 C45.793,62.553 43.494,63.235 41.185,63.235 C40.974,63.235 40.764,63.230 40.553,63.218 L15.765,61.879 L15.902,59.396 L40.690,60.735 C42.673,60.845 44.674,60.303 46.329,59.216 L65.887,46.356 C66.485,45.962 66.658,45.180 66.278,44.576 L65.374,43.134 C65.032,42.588 64.348,42.368 63.747,42.613 L48.181,49.972 L47.097,47.728 L62.727,40.342 C64.534,39.603 66.516,40.240 67.509,41.822 L68.413,43.264 C69.514,45.017 69.015,47.285 67.278,48.427 ZM58.507,18.277 L56.640,18.277 L56.640,36.179 C56.640,36.822 56.111,37.345 55.462,37.345 L25.562,37.345 C24.913,37.345 24.384,36.822 24.384,36.179 L24.384,18.277 L22.499,18.277 C21.850,18.277 21.322,17.754 21.322,17.112 L21.322,13.807 C21.322,13.412 21.521,13.048 21.855,12.832 L39.858,1.167 C40.249,0.913 40.755,0.911 41.148,1.167 L59.154,12.832 C59.486,13.049 59.685,13.413 59.685,13.807 L59.685,17.112 C59.685,17.754 59.156,18.277 58.507,18.277 ZM55.462,15.946 L57.329,15.946 L57.329,14.437 L40.504,3.535 L23.678,14.437 L23.678,15.946 L25.562,15.946 C26.212,15.946 26.741,16.469 26.741,17.112 L26.741,35.013 L54.284,35.013 L54.284,17.112 C54.284,16.469 54.813,15.946 55.462,15.946 ZM41.336,29.081 C41.114,29.300 40.818,29.421 40.504,29.421 C40.190,29.421 39.894,29.300 39.671,29.081 L34.028,23.498 C32.266,21.752 32.266,18.912 34.028,17.167 C35.732,15.481 38.721,15.479 40.426,17.166 L40.504,17.242 L40.579,17.166 C42.286,15.481 45.274,15.481 46.979,17.166 C48.742,18.912 48.742,21.752 46.979,23.498 L41.336,29.081 ZM45.312,18.816 C44.536,18.046 43.021,18.048 42.247,18.815 L41.336,19.715 C40.891,20.153 40.116,20.155 39.670,19.713 L38.761,18.816 C38.352,18.410 37.807,18.187 37.227,18.187 C36.648,18.187 36.104,18.410 35.695,18.815 C35.286,19.220 35.060,19.759 35.060,20.333 C35.060,20.905 35.286,21.444 35.694,21.848 L40.504,26.607 L45.312,21.848 C46.158,21.013 46.158,19.651 45.312,18.816 ZM33.036,43.479 L41.585,43.940 C43.376,44.038 44.753,45.558 44.656,47.329 L44.489,50.353 C44.395,52.065 42.956,53.395 41.243,53.395 C41.185,53.395 41.125,53.393 41.065,53.390 L28.727,52.723 L28.864,50.241 L41.201,50.907 C41.599,50.928 41.957,50.620 41.979,50.218 L42.146,47.193 C42.168,46.791 41.855,46.446 41.448,46.424 L31.836,45.904 L31.485,45.493 C29.824,43.541 27.136,42.567 23.914,42.756 C19.364,43.020 14.872,45.525 12.467,49.135 L12.045,49.769 L14.472,65.294 L3.330,66.998 L0.013,45.778 L11.155,44.073 L11.501,46.288 C14.472,42.853 19.096,40.546 23.766,40.274 C27.575,40.046 30.844,41.187 33.036,43.479 ZM9.056,46.911 L2.881,47.856 L5.430,64.160 L11.604,63.217 L9.056,46.911 Z"/>
</svg>