<svg 
 xmlns="http://www.w3.org/2000/svg"
 xmlns:xlink="http://www.w3.org/1999/xlink"
 width="69px" height="46px">
<path fill-rule="evenodd"  fill="rgb(239, 137, 3)"
 d="M63.797,21.513 C63.537,22.952 62.366,27.786 58.187,29.693 L57.246,30.123 L56.392,28.225 L57.334,27.796 C61.121,26.067 61.802,20.906 61.809,20.854 L61.856,20.466 L67.611,15.286 L68.989,16.840 L63.797,21.513 ZM40.269,3.178 C39.397,2.683 38.353,2.673 37.473,3.151 L21.820,11.809 L22.912,13.550 C23.073,13.807 23.373,13.938 23.663,13.880 L35.701,11.291 C37.552,10.895 39.446,11.566 40.640,13.049 L53.069,28.464 C54.248,29.926 54.066,32.033 52.653,33.261 L50.794,34.889 C50.162,35.445 49.373,35.742 48.545,35.742 C48.443,35.742 48.341,35.737 48.239,35.728 C47.968,35.705 47.708,35.641 47.456,35.557 C47.270,36.204 46.900,36.803 46.349,37.260 L44.679,38.647 C44.059,39.163 43.296,39.438 42.502,39.438 C42.387,39.438 42.273,39.432 42.158,39.420 C41.806,39.385 41.475,39.283 41.159,39.148 C40.960,39.719 40.623,40.248 40.131,40.661 L38.663,41.891 C38.039,42.413 37.272,42.692 36.471,42.692 C36.361,42.692 36.250,42.686 36.139,42.676 C35.552,42.619 35.010,42.403 34.536,42.077 C34.329,42.544 34.029,42.977 33.613,43.325 L32.218,44.495 C31.579,45.030 30.799,45.291 30.024,45.291 C29.043,45.291 28.069,44.873 27.392,44.063 L26.552,43.058 L28.133,41.716 L28.974,42.721 C29.456,43.299 30.319,43.376 30.895,42.893 L32.291,41.724 C32.866,41.241 32.948,40.375 32.474,39.791 L28.193,34.533 L27.801,34.051 L27.801,34.051 L27.801,34.051 L28.352,33.595 L29.400,32.730 L29.400,32.730 L29.400,32.730 L30.200,33.712 L35.408,40.105 C35.640,40.391 35.969,40.567 36.335,40.602 C36.704,40.638 37.058,40.526 37.340,40.289 L38.808,39.060 C39.383,38.578 39.466,37.712 38.993,37.129 L32.581,29.215 L32.581,29.215 L31.849,28.311 L33.451,26.994 L41.435,36.848 C41.667,37.134 41.996,37.311 42.361,37.347 C42.721,37.384 43.081,37.275 43.364,37.040 L45.035,35.653 C45.609,35.176 45.697,34.311 45.231,33.727 L40.481,27.776 L36.848,23.272 L38.453,21.958 L41.455,25.679 L41.459,25.676 L42.098,26.476 L47.481,33.149 C47.716,33.442 48.048,33.621 48.419,33.653 C48.793,33.688 49.153,33.567 49.437,33.318 L51.299,31.687 C51.862,31.197 51.933,30.360 51.464,29.777 L39.034,14.361 C38.342,13.503 37.203,13.097 36.133,13.329 L24.070,15.922 C22.915,16.144 21.781,15.647 21.163,14.663 L19.920,12.681 C19.663,12.270 19.587,11.767 19.698,11.294 L13.554,4.361 L15.097,2.973 L21.149,9.804 L36.484,1.321 C38.001,0.498 39.792,0.515 41.286,1.364 L51.655,7.260 L56.465,2.930 L57.843,4.484 L51.928,9.807 L40.269,3.178 ZM15.282,25.023 C15.827,25.144 16.319,25.427 16.690,25.860 L18.584,28.068 C18.962,28.508 19.168,29.051 19.202,29.622 C19.758,29.739 20.261,30.024 20.638,30.464 L22.532,32.673 C22.910,33.113 23.116,33.656 23.150,34.227 C23.689,34.341 24.199,34.617 24.587,35.068 L25.909,36.611 C26.363,37.141 26.586,37.818 26.535,38.517 C26.484,39.217 26.166,39.855 25.638,40.312 L24.109,41.644 C23.617,42.071 23.011,42.281 22.408,42.281 C21.676,42.281 20.948,41.973 20.434,41.373 L18.326,38.914 C17.609,38.902 16.900,38.599 16.396,38.012 L16.396,38.011 L14.502,35.802 C14.115,35.351 13.918,34.803 13.885,34.249 C13.329,34.132 12.826,33.847 12.448,33.407 L10.554,31.198 C10.187,30.770 9.988,30.256 9.939,29.733 C9.402,29.618 8.896,29.333 8.511,28.883 L8.511,28.883 L6.601,26.656 C5.662,25.560 5.782,23.900 6.870,22.954 L7.576,22.339 L-0.005,14.171 L1.506,12.748 L9.148,20.983 C9.665,20.561 10.313,20.353 10.974,20.399 C11.668,20.450 12.301,20.770 12.756,21.301 L14.666,23.528 C15.039,23.964 15.238,24.489 15.282,25.023 ZM21.999,40.012 C22.093,40.121 22.224,40.187 22.366,40.198 C22.510,40.206 22.648,40.162 22.757,40.067 L24.287,38.735 C24.396,38.641 24.462,38.509 24.472,38.366 C24.483,38.221 24.437,38.081 24.343,37.972 L23.022,36.430 C22.828,36.205 22.488,36.179 22.263,36.374 L20.326,38.060 L21.999,40.012 ZM16.067,34.441 L17.961,36.649 C18.154,36.875 18.494,36.901 18.719,36.705 L20.912,34.798 C21.021,34.703 21.086,34.572 21.096,34.428 C21.107,34.284 21.061,34.144 20.967,34.035 L19.073,31.826 C18.979,31.716 18.849,31.650 18.706,31.639 C18.563,31.632 18.423,31.675 18.315,31.770 L16.122,33.678 C15.898,33.872 15.874,34.215 16.067,34.441 ZM13.101,24.890 L11.191,22.663 C11.097,22.553 10.966,22.487 10.824,22.477 C10.673,22.465 10.541,22.512 10.433,22.607 L8.221,24.530 C7.997,24.725 7.973,25.068 8.166,25.294 L10.076,27.521 C10.220,27.691 10.448,27.747 10.648,27.683 C10.707,27.620 10.757,27.553 10.823,27.496 L13.016,25.589 C13.045,25.563 13.080,25.546 13.111,25.521 C13.236,25.325 13.260,25.076 13.101,24.890 ZM14.397,27.230 L12.186,29.154 C12.160,29.176 12.132,29.191 12.106,29.211 C11.984,29.407 11.962,29.653 12.119,29.837 L14.013,32.045 C14.107,32.155 14.237,32.221 14.380,32.231 C14.530,32.242 14.663,32.195 14.771,32.101 L16.963,30.193 C17.072,30.098 17.137,29.967 17.148,29.823 C17.159,29.679 17.113,29.539 17.019,29.429 L15.125,27.221 C15.031,27.111 14.901,27.046 14.757,27.035 C14.744,27.034 14.731,27.034 14.718,27.034 C14.661,27.034 14.606,27.046 14.553,27.063 C14.500,27.118 14.456,27.179 14.397,27.230 Z"/>
</svg>