<svg 
 xmlns="http://www.w3.org/2000/svg"
 xmlns:xlink="http://www.w3.org/1999/xlink"
 width="52px" height="60px">
<path fill-rule="evenodd"  fill="rgb(239, 137, 3)"
 d="M51.976,18.992 L51.961,19.158 C51.364,25.906 46.875,31.718 40.526,33.966 C39.860,34.202 39.316,34.617 38.954,35.168 C36.765,38.494 33.369,40.890 29.542,41.835 L29.542,47.760 C29.542,48.646 29.984,49.462 30.725,49.940 L31.563,50.483 L30.485,52.171 L29.647,51.629 C28.333,50.779 27.549,49.332 27.549,47.760 L27.549,40.195 L28.361,40.041 C31.990,39.351 35.245,37.171 37.292,34.060 C37.896,33.141 38.786,32.455 39.865,32.073 C45.478,30.086 49.448,24.946 49.976,18.979 L49.991,18.813 C50.152,16.992 49.565,15.245 48.339,13.896 C47.112,12.547 45.437,11.804 43.620,11.804 L41.047,11.804 L41.762,4.395 L43.746,4.589 L43.244,9.797 L43.620,9.797 C45.968,9.797 48.224,10.797 49.809,12.541 C51.394,14.285 52.184,16.637 51.976,18.992 ZM40.862,13.734 L43.580,13.734 C44.823,13.734 46.019,14.262 46.863,15.181 C47.706,16.101 48.132,17.344 48.032,18.592 L48.007,18.908 C47.644,23.461 44.898,27.562 40.841,29.613 L39.113,30.487 L39.408,28.564 C39.459,28.240 39.498,27.912 39.526,27.580 L40.862,13.734 ZM46.021,18.749 L46.046,18.431 C46.102,17.729 45.872,17.059 45.398,16.542 C44.924,16.025 44.279,15.741 43.580,15.741 L42.670,15.741 L41.605,26.794 C44.148,24.898 45.761,22.005 46.021,18.749 ZM5.679,-0.001 L45.908,-0.001 L45.908,2.006 L5.679,2.006 L5.679,-0.001 ZM4.003,18.909 L3.977,18.591 C3.878,17.344 4.304,16.101 5.148,15.181 C5.991,14.262 7.187,13.734 8.431,13.734 L10.725,13.734 L12.061,27.582 C12.082,27.834 12.110,28.085 12.145,28.333 L12.422,30.330 L10.673,29.348 C6.846,27.203 4.353,23.300 4.003,18.909 ZM8.916,15.741 L8.431,15.741 C7.732,15.741 7.086,16.025 6.612,16.541 C6.138,17.059 5.908,17.729 5.964,18.431 L5.989,18.749 C6.230,21.775 7.673,24.526 9.946,26.427 L8.916,15.741 ZM7.840,4.589 L9.824,4.395 L10.540,11.804 L8.391,11.804 C6.574,11.804 4.897,12.547 3.671,13.897 C2.444,15.245 1.858,16.992 2.019,18.813 L2.034,18.978 C2.548,24.781 6.375,29.869 11.783,31.940 C12.782,32.323 13.619,33.008 14.204,33.920 C16.246,37.108 19.534,39.339 23.226,40.041 L24.038,40.195 L24.038,47.760 C24.038,49.332 23.253,50.778 21.940,51.628 L21.102,52.171 L20.023,50.484 L20.862,49.941 C21.602,49.461 22.044,48.646 22.044,47.760 L22.044,41.835 C18.150,40.876 14.714,38.421 12.528,35.006 C12.176,34.457 11.674,34.045 11.075,33.816 C4.958,31.473 0.630,25.719 0.049,19.157 L0.034,18.993 C-0.175,16.637 0.615,14.287 2.200,12.542 C3.775,10.809 6.012,9.810 8.343,9.797 L7.840,4.589 ZM25.793,25.954 L19.246,30.084 L21.059,22.492 L15.199,17.548 L22.867,16.889 L25.793,9.799 L28.719,16.889 L36.388,17.548 L30.527,22.492 L32.341,30.084 L25.793,25.954 ZM31.405,19.133 L27.343,18.784 L25.793,15.029 L24.243,18.784 L20.182,19.133 L23.285,21.752 L22.325,25.774 L25.793,23.587 L29.262,25.774 L28.302,21.752 L31.405,19.133 ZM39.383,59.994 L37.390,59.994 L37.390,55.799 L14.197,55.799 L14.197,59.994 L12.204,59.994 L12.204,53.793 L39.383,53.793 L39.383,59.994 Z"/>
</svg>