<svg 
 xmlns="http://www.w3.org/2000/svg"
 xmlns:xlink="http://www.w3.org/1999/xlink"
 width="66px" height="55px">
<path fill-rule="evenodd"  fill="rgb(239, 137, 3)"
 d="M-0.003,54.990 L-0.003,0.001 L65.995,0.001 L65.995,53.816 L65.995,54.990 L-0.003,54.990 ZM63.645,2.349 L2.347,2.349 L2.347,8.712 L60.328,8.712 L60.328,11.061 L2.347,11.061 L2.347,52.641 L63.645,52.641 L63.645,2.349 ZM60.000,48.688 L7.167,48.688 L5.992,48.688 L5.992,14.891 L60.000,14.891 L60.000,48.688 ZM57.650,17.240 L8.342,17.240 L8.342,46.339 L57.650,46.339 L57.650,17.240 ZM16.624,39.762 L18.974,39.762 L18.974,44.606 L16.624,44.606 L16.624,43.358 L11.472,43.358 L11.472,41.009 L16.624,41.009 L16.624,39.762 ZM54.278,43.358 L21.924,43.358 L21.924,41.009 L54.278,41.009 L54.278,43.358 ZM27.669,24.574 L27.669,22.462 L39.376,29.726 L27.669,36.989 L27.669,24.574 ZM30.019,32.766 L34.920,29.726 L30.019,26.685 L30.019,32.766 ZM14.343,4.395 L16.638,4.395 L16.638,6.744 L14.343,6.744 L14.343,4.395 ZM9.755,4.395 L12.049,4.395 L12.049,6.744 L9.755,6.744 L9.755,4.395 ZM5.166,4.395 L7.460,4.395 L7.460,6.744 L5.166,6.744 L5.166,4.395 Z"/>
</svg>