<svg 
 xmlns="http://www.w3.org/2000/svg"
 xmlns:xlink="http://www.w3.org/1999/xlink"
 width="69px" height="60px">
<path fill-rule="evenodd"  fill="rgb(239, 137, 3)"
 d="M63.960,50.036 L42.369,50.036 L43.874,58.165 L46.055,58.165 C46.563,58.165 46.974,58.576 46.974,59.082 C46.974,59.589 46.563,60.000 46.055,60.000 L43.113,60.000 C43.111,59.999 43.111,59.999 43.110,60.000 L25.890,60.000 L22.944,60.000 C22.437,60.000 22.025,59.589 22.025,59.082 C22.025,58.576 22.437,58.165 22.944,58.165 L25.125,58.165 L26.631,50.036 L5.039,50.036 C2.260,50.036 -0.000,47.778 -0.000,45.003 L-0.000,5.032 C-0.000,2.258 2.260,-0.000 5.039,-0.000 L63.960,-0.000 C66.739,-0.000 69.000,2.258 69.000,5.032 L69.000,45.003 C69.000,47.778 66.739,50.036 63.960,50.036 ZM42.005,58.165 L40.511,50.098 L28.488,50.098 L26.994,58.165 L42.005,58.165 ZM67.030,5.032 C67.030,3.342 65.653,1.966 63.960,1.966 L5.039,1.966 C3.346,1.966 1.969,3.342 1.969,5.032 L1.969,36.354 L67.030,36.354 L67.030,5.032 ZM67.030,38.189 L1.969,38.189 L1.969,45.003 C1.969,46.694 3.346,48.070 5.039,48.070 L63.960,48.070 C65.653,48.070 67.030,46.694 67.030,45.003 L67.030,38.189 ZM34.500,44.702 C33.530,44.702 32.741,43.914 32.741,42.946 C32.741,41.977 33.530,41.189 34.500,41.189 C35.470,41.189 36.258,41.977 36.258,42.946 C36.258,43.914 35.470,44.702 34.500,44.702 ZM6.664,5.672 L11.382,5.672 C11.466,5.672 11.541,5.700 11.619,5.720 C11.696,5.700 11.771,5.672 11.855,5.672 L50.873,5.672 L62.335,5.672 C62.879,5.672 63.320,6.112 63.320,6.655 L63.320,31.458 C63.320,32.001 62.879,32.440 62.335,32.440 L50.873,32.440 C50.329,32.440 49.888,32.001 49.888,31.458 L49.888,7.638 L46.422,7.638 L46.422,9.085 C46.422,9.629 45.982,10.068 45.438,10.068 C44.894,10.068 44.453,9.629 44.453,9.085 L44.453,7.638 L41.665,7.638 L41.665,9.085 C41.665,9.629 41.225,10.068 40.681,10.068 C40.137,10.068 39.697,9.629 39.697,9.085 L39.697,7.638 L36.909,7.638 L36.909,9.085 C36.909,9.629 36.468,10.068 35.924,10.068 C35.380,10.068 34.940,9.629 34.940,9.085 L34.940,7.638 L32.151,7.638 L32.151,9.085 C32.151,9.629 31.711,10.068 31.167,10.068 C30.623,10.068 30.182,9.629 30.182,9.085 L30.182,7.638 L27.395,7.638 L27.395,9.085 C27.395,9.629 26.954,10.068 26.410,10.068 C25.866,10.068 25.426,9.629 25.426,9.085 L25.426,7.638 L22.637,7.638 L22.637,9.085 C22.637,9.629 22.197,10.068 21.653,10.068 C21.109,10.068 20.669,9.629 20.669,9.085 L20.669,7.638 L17.881,7.638 L17.881,9.085 C17.881,9.629 17.440,10.068 16.896,10.068 C16.353,10.068 15.912,9.629 15.912,9.085 L15.912,7.638 L12.366,7.638 L12.366,25.114 C12.366,25.657 11.926,26.097 11.382,26.097 L6.664,26.097 C6.121,26.097 5.680,25.657 5.680,25.114 L5.680,6.655 C5.680,6.112 6.121,5.672 6.664,5.672 ZM51.857,30.474 L61.350,30.474 L61.350,7.638 L51.857,7.638 L51.857,30.474 ZM7.649,24.131 L10.397,24.131 L10.397,7.638 L7.649,7.638 L7.649,24.131 ZM58.069,21.756 L55.139,21.756 C54.595,21.756 54.154,21.316 54.154,20.773 C54.154,20.230 54.595,19.790 55.139,19.790 L58.069,19.790 C58.613,19.790 59.054,20.230 59.054,20.773 C59.054,21.316 58.613,21.756 58.069,21.756 ZM58.069,18.495 L55.139,18.495 C54.595,18.495 54.154,18.055 54.154,17.512 C54.154,16.969 54.595,16.529 55.139,16.529 L58.069,16.529 C58.613,16.529 59.054,16.969 59.054,17.512 C59.054,18.055 58.613,18.495 58.069,18.495 ZM58.069,15.233 L55.139,15.233 C54.595,15.233 54.154,14.793 54.154,14.250 C54.154,13.707 54.595,13.267 55.139,13.267 L58.069,13.267 C58.613,13.267 59.054,13.707 59.054,14.250 C59.054,14.793 58.613,15.233 58.069,15.233 ZM58.069,11.972 L55.139,11.972 C54.595,11.972 54.154,11.532 54.154,10.989 C54.154,10.446 54.595,10.006 55.139,10.006 L58.069,10.006 C58.613,10.006 59.054,10.446 59.054,10.989 C59.054,11.532 58.613,11.972 58.069,11.972 ZM24.559,19.692 C22.753,19.692 21.284,18.224 21.284,16.420 C21.284,14.617 22.753,13.149 24.559,13.149 C26.366,13.149 27.835,14.617 27.835,16.420 C27.835,18.224 26.366,19.692 24.559,19.692 ZM24.559,14.985 C23.766,14.985 23.121,15.629 23.121,16.420 C23.121,17.212 23.766,17.856 24.559,17.856 C25.352,17.856 25.997,17.212 25.997,16.420 C25.997,15.629 25.352,14.985 24.559,14.985 ZM22.723,22.312 C23.031,21.944 23.569,21.875 23.960,22.152 L27.792,24.869 L27.990,24.624 L27.995,24.618 C27.995,24.618 27.995,24.618 27.995,24.618 L34.307,16.802 C34.487,16.579 34.756,16.455 35.047,16.461 C35.333,16.468 35.599,16.609 35.767,16.841 L45.984,30.972 C46.186,31.251 46.214,31.620 46.057,31.926 C45.900,32.233 45.584,32.426 45.239,32.426 L16.217,32.426 C15.860,32.426 15.535,32.220 15.384,31.897 C15.233,31.575 15.283,31.193 15.512,30.920 L22.723,22.312 ZM43.442,30.591 L34.982,18.890 L29.411,25.788 L27.320,28.432 C27.139,28.661 26.870,28.781 26.599,28.781 C26.400,28.781 26.199,28.717 26.030,28.583 C25.632,28.269 25.564,27.692 25.878,27.295 L26.655,26.313 L23.588,24.139 L18.184,30.591 L43.442,30.591 Z"/>
</svg>